<svg width="101" height="118" viewBox="0 0 101 118" fill="none" xmlns="http://www.w3.org/2000/svg">
<path d="M60.7627 50.7061C58.7839 50.0938 56.8051 49.495 54.8617 48.8758H54.8546C37.1158 43.3438 28.1082 38.9278 28.1082 30.1774C28.1082 21.427 36.7258 16.174 51.1593 16.174C60.0181 16.174 66.1674 18.2697 68.9619 22.2367C71.572 25.9519 71.4089 31.3817 68.4654 38.363L67.6072 40.4043L92.9563 35.825L93.0485 34.9336C94.0698 25.3122 91.7577 17.4328 86.1971 11.5198C78.998 3.87849 66.8128 0 49.989 0C21.1361 0 4.58893 11.234 4.58893 30.817C4.58893 53.4755 28.0302 60.5589 45.1377 65.737L48.6911 66.7917C65.8128 71.8677 77.1255 75.2155 77.1255 86.0276C77.1255 95.8395 67.7349 101.467 51.3508 101.467C40.4352 101.467 32.378 98.8062 28.0373 93.7642C24.3491 89.4774 23.2497 83.4488 24.7746 75.8483L25.1221 74.1064L0 78.6381L0.12052 79.7404C2.70225 104.175 21.7957 117.634 53.8758 117.634C83.594 117.634 100.638 105.822 100.638 85.2179C100.638 62.886 80.3669 56.694 60.7557 50.6925" fill="#FCF8F1"/>
</svg>
