<svg width="33" height="34" viewBox="0 0 33 34" fill="none" xmlns="http://www.w3.org/2000/svg">
<path d="M6.69547 22.4748C6.69547 26.0607 9.32684 27.5033 16.6394 27.5033C23.9519 27.5033 26.1932 26.156 26.1932 23.5771C26.1932 20.9983 24.5335 19.6918 15.5187 19.0114C3.64563 18.0792 0.432642 15.0785 0.432642 9.38323C0.432642 3.68797 5.00032 0 16.0223 0C27.7394 0 31.8815 2.9599 31.8815 9.29477C31.8815 9.9684 31.8815 10.6012 31.8389 11.3157C31.1013 11.2748 29.9026 11.234 28.704 11.234C27.5053 11.234 26.2287 11.2748 25.4981 11.3157C25.5336 10.9006 25.5336 10.3903 25.5336 10.0501C25.5336 7.0017 23.6327 5.44349 15.8592 5.44349C9.01476 5.44349 7.00045 6.75674 7.00045 9.11786C7.00045 11.3157 8.12818 12.7106 17.7529 13.5135C28.9735 14.5273 32.6475 17.0994 32.6475 23.2709C32.6475 29.4425 28.1224 33.1169 16.7103 33.1169C5.29821 33.1169 0 30.0753 0 23.6996C0 22.9852 -1.03892e-05 22.3047 0.0780088 21.5426C0.929128 21.6651 2.13489 21.7127 3.32646 21.7127C4.61023 21.7127 5.80179 21.7127 6.69547 21.6311V22.4748Z" fill="#FCF8F1"/>
</svg>
