<svg width="116" height="115" viewBox="0 0 116 115" fill="none" xmlns="http://www.w3.org/2000/svg">
<path d="M113.383 2.09575L115.78 0H84.7643L57.8973 46.7188L31.0233 0H0L2.40442 2.09575C5.25567 4.58614 7.24157 12.6425 7.24157 21.6923V92.7503C7.24157 101.793 5.24858 109.857 2.40442 112.347L0 114.443H37.4138L35.0093 112.347C32.1581 109.857 30.1722 101.793 30.1722 92.7503V36.5667L50.5707 68.8262H65.2169L85.6083 36.5667V92.7503C85.6083 101.793 83.6153 109.857 80.7712 112.347L78.3738 114.443H115.78L113.383 112.347C110.532 109.857 108.546 101.793 108.546 92.7503V21.6923C108.546 12.6425 110.532 4.59295 113.383 2.09575Z" fill="#FCF8F1"/>
</svg>
