<svg width="78" height="88" viewBox="0 0 78 88" fill="none" xmlns="http://www.w3.org/2000/svg">
<path d="M40.1018 87.2456C62.4862 87.2456 76.1397 75.9639 77.5724 56.2789L77.7568 53.7545L55.3581 49.7127L56.0745 53.7341C57.1809 59.8716 56.4575 64.5122 53.9396 67.5197C51.5565 70.3708 47.4995 71.8269 41.8892 71.8269C24.3916 71.8269 20.7247 56.4898 20.7247 43.6228C20.7247 30.7557 24.3916 15.4119 41.8892 15.4119C47.4995 15.4119 51.5565 16.8612 53.9396 19.7191C56.4575 22.7266 57.1809 27.3672 56.0745 33.5047L55.3581 37.5329L77.7568 33.4911L77.5724 30.9599C76.1397 11.2816 62.4791 0 40.1018 0C14.6179 0 0 15.9018 0 43.6296C0 71.3574 14.6179 87.2592 40.1018 87.2592" fill="#FCF8F1"/>
</svg>
