<svg width="32" height="32" viewBox="0 0 32 32" fill="none" xmlns="http://www.w3.org/2000/svg">
<path d="M18.682 0.00680063C27.0372 0.00680063 31.9169 2.7966 31.9169 11.5402C31.9169 19.7803 27.1932 23.3254 18.5685 23.3254C14.547 23.3254 11.9582 23.3254 6.85153 23.1553C6.88699 26.4962 6.96502 29.4017 7.12105 31.6879H0C0.156038 27.1222 0.156018 22.6041 0.156018 15.8406C0.156018 9.07702 0.156038 4.34799 0 0H18.682V0.00680063ZM25.3704 11.6287C25.3704 7.19221 23.0086 5.66804 17.4763 5.66804C15.2705 5.66804 9.5822 5.71567 6.75932 5.79732V17.494C8.6105 17.494 12.8661 17.5825 17.2848 17.5825C23.1646 17.5825 25.3704 15.9767 25.3704 11.6287Z" fill="#FCF8F1"/>
</svg>
