<svg width="1154" height="185" viewBox="0 0 1154 185" fill="none" xmlns="http://www.w3.org/2000/svg">
<path d="M113.383 5.31425L115.781 3.21851H84.7572L57.8832 49.9373L31.0162 3.21851H0L2.40441 5.31425C5.25566 7.80465 7.24869 15.861 7.24869 24.9108V95.9688C7.24869 105.012 5.25566 113.075 2.40441 115.565L0 117.661H37.4138L35.0164 115.565C32.1652 113.075 30.1792 105.012 30.1792 95.9688V39.7852L50.5777 72.0447H65.217L85.6154 39.7852V95.9688C85.6154 105.012 83.6295 113.075 80.7783 115.565L78.3809 117.661H115.795L113.397 115.565C110.539 113.075 108.553 105.012 108.553 95.9688V24.9108C108.553 15.861 110.539 7.81145 113.397 5.31425" fill="#FCF8F1"/>
<path d="M210.482 1.61945C192.97 1.61945 179.445 7.09696 170.274 17.9091C161.671 28.0544 157.294 42.364 157.294 60.4432C157.294 78.5224 161.664 92.832 170.274 102.977C179.445 113.783 192.97 119.267 210.482 119.267C227.994 119.267 241.513 113.789 250.691 102.977C259.294 92.832 263.656 78.5224 263.656 60.4432C263.656 42.364 259.294 28.0544 250.691 17.9091C241.513 7.09696 227.987 1.61945 210.482 1.61945ZM240.144 60.4432C240.144 87.9396 229.604 103.086 210.482 103.086C191.36 103.086 180.814 87.9396 180.814 60.4432C180.814 32.9467 191.353 17.7934 210.482 17.7934C229.611 17.7934 240.144 32.9399 240.144 60.4432Z" fill="#FCF8F1"/>
<path d="M386.379 96.9554C382.705 99.8337 375.697 101.487 367.15 101.487H335.347V24.9108C335.347 15.8678 337.34 7.81142 340.191 5.32103L342.589 3.22528H305.175L307.572 5.32103C310.423 7.81142 312.409 15.8678 312.409 24.9108V95.9756C312.409 105.019 310.416 113.075 307.572 115.572L305.175 117.668H393.649L387.911 95.7647L386.379 96.9623V96.9554Z" fill="#FCF8F1"/>
<path d="M511.168 96.9554C507.494 99.8337 500.48 101.487 491.933 101.487H460.136V24.9108C460.136 15.8678 462.122 7.81142 464.974 5.32103L467.378 3.22528H429.964L432.362 5.32103C435.213 7.81142 437.199 15.8678 437.199 24.9108V95.9756C437.199 105.019 435.213 113.075 432.362 115.572L429.964 117.668H518.438L512.7 95.7647L511.168 96.9623V96.9554Z" fill="#FCF8F1"/>
<path d="M605.033 4.84475C606.409 8.38302 605.388 13.1257 602.239 17.8547L584.237 47.3244L566.243 17.8547C563.087 13.1257 562.066 8.38302 563.442 4.84475L564.08 3.21851H523.404L528.269 5.50477C532.497 7.49845 537.568 12.4724 542.135 19.1339L572.676 67.0162V95.962C572.676 105.012 570.683 113.068 567.839 115.559L565.442 117.654H602.849L600.451 115.559C597.6 113.068 595.607 105.012 595.607 95.962V66.6896L625.737 19.1679C630.34 12.4724 635.397 7.49165 639.631 5.50477L644.504 3.21851H604.409L605.04 4.84475H605.033Z" fill="#FCF8F1"/>
<path d="M868.403 5.31425L870.8 3.21851H839.784L812.917 49.9373L786.043 3.21851H755.02L757.424 5.31425C760.275 7.80465 762.261 15.861 762.261 24.9108V95.9688C762.261 105.012 760.268 113.075 757.424 115.565L755.02 117.661H792.433L790.029 115.565C787.178 113.075 785.192 105.012 785.192 95.9688V39.7852L805.59 72.0447H820.237L840.628 39.7852V95.9688C840.628 105.012 838.635 113.075 835.791 115.565L833.393 117.661H870.8L868.403 115.565C865.552 113.075 863.566 105.012 863.566 95.9688V24.9108C863.566 15.861 865.552 7.81145 868.403 5.31425Z" fill="#FCF8F1"/>
<path d="M965.545 87.2456C987.93 87.2456 1001.58 75.9639 1003.02 56.2789L1003.2 53.7545L980.801 49.7127L981.518 53.7341C982.624 59.8716 981.901 64.5122 979.383 67.5197C977 70.3708 972.943 71.8269 967.333 71.8269C949.835 71.8269 946.168 56.4898 946.168 43.6228C946.168 30.7557 949.835 15.4119 967.333 15.4119C972.943 15.4119 977 16.8612 979.383 19.7191C981.901 22.7266 982.624 27.3672 981.518 33.5047L980.801 37.5329L1003.2 33.4911L1003.02 30.9599C1001.58 11.2816 987.923 0 965.545 0C940.061 0 925.443 15.9018 925.443 43.6296C925.443 71.3574 940.061 87.2592 965.545 87.2592" fill="#FCF8F1"/>
<path d="M1114.13 52.3256C1112.15 51.7132 1110.17 51.1144 1108.23 50.4952H1108.22C1090.48 44.9633 1081.47 40.5472 1081.47 31.7968C1081.47 23.0464 1090.09 17.7934 1104.53 17.7934C1113.38 17.7934 1119.53 19.8892 1122.33 23.8561C1124.94 27.5713 1124.78 33.0012 1121.83 39.9825L1120.97 42.0238L1146.32 37.4444L1146.41 36.5531C1147.44 26.9317 1145.12 19.0522 1139.56 13.1392C1132.36 5.49794 1120.18 1.61945 1103.36 1.61945C1074.5 1.61945 1057.96 12.8535 1057.96 32.4364C1057.96 55.095 1081.4 62.1783 1098.5 67.3564L1102.06 68.4111C1119.18 73.4872 1130.49 76.8349 1130.49 87.6471C1130.49 97.459 1121.1 103.086 1104.72 103.086C1093.8 103.086 1085.74 100.426 1081.4 95.3836C1077.72 91.0969 1076.62 85.0682 1078.14 77.4677L1078.49 75.7258L1053.37 80.2575L1053.49 81.3598C1056.07 105.794 1075.16 119.253 1107.24 119.253C1136.96 119.253 1154 107.441 1154 86.8373C1154 64.5054 1133.73 58.3134 1114.12 52.312" fill="#FCF8F1"/>
<path d="M678.972 88.6066C670.341 88.6066 663.319 95.6151 663.319 104.229C663.319 112.844 670.341 119.852 678.972 119.852C687.604 119.852 694.626 112.844 694.626 104.229C694.626 95.6151 687.611 88.6066 678.972 88.6066Z" fill="#FCF8F1"/>
<path d="M998.511 107.387C997.362 107.931 996.27 108.455 995.241 108.659C994.071 108.884 992.837 109.02 991.574 109.06C989.617 109.108 987.546 108.931 985.404 108.523C981.233 107.727 977.148 106.182 973.197 104.685C971.694 104.12 970.19 103.549 968.679 103.018C961.125 100.364 949.905 98.1599 939.301 102.732C936.897 103.773 934.507 105.121 932.18 106.747C930.975 107.598 929.755 108.537 928.563 109.55C928.329 109.748 928.095 109.931 927.861 110.115C926.882 110.877 925.769 111.748 925.464 113.204L925.13 114.803L926.818 114.64C928.648 114.456 930.336 113.844 931.975 113.238C933.188 112.789 934.344 112.367 935.514 112.122C939.188 111.374 943.373 112 948.664 114.102C950.068 114.66 951.472 115.239 952.877 115.817C960.076 118.797 967.516 121.88 975.8 121.928H976.013C986.326 121.928 997.589 116.368 1004.7 107.754L1006.26 105.856L1003.74 105.801C1001.89 105.74 1000.17 106.584 998.497 107.373" fill="#FCF8F1"/>
<path d="M194.062 183.847C194.176 178.948 194.176 174.723 194.176 168.007C194.176 161.291 194.176 157.024 194.062 152.159H200.942C200.786 156.977 200.829 161.202 200.829 167.966C200.829 174.729 200.786 178.907 200.942 183.847H194.062Z" fill="#FCF8F1"/>
<path d="M248.406 170.878C253.243 171.47 255.094 172.776 256.612 177.383C257.534 180.295 258.236 182.622 258.775 183.847H252.583C251.349 183.847 251.193 183.425 250.455 180.513C248.597 174.512 247.859 173.158 242.561 173.158H231.305C231.376 177.471 231.497 181.227 231.724 183.847H224.73C224.766 179.241 224.837 174.804 224.837 168.007C224.837 161.209 224.801 156.732 224.73 152.159H244.412C252.42 152.159 256.789 155.037 256.789 161.583C256.789 166.904 254.2 169.864 248.391 170.749V170.871L248.406 170.878ZM243.065 167.918C248.171 167.918 250.335 166.02 250.335 162.686C250.335 158.841 248.207 157.698 242.753 157.698C240.504 157.698 234.362 157.746 231.305 157.868C231.263 161.25 231.263 164.625 231.263 167.796C233.234 167.877 238.029 167.918 243.058 167.918" fill="#FCF8F1"/>
<path d="M280.005 183.847C280.119 178.948 280.119 174.723 280.119 168.007C280.119 161.291 280.119 157.024 280.005 152.159H286.892C286.729 156.977 286.779 161.202 286.779 167.966C286.779 174.729 286.736 178.907 286.892 183.847H280.005Z" fill="#FCF8F1"/>
<path d="M316.093 173.92C316.093 177.506 318.724 178.948 326.037 178.948C333.349 178.948 335.591 177.601 335.591 175.022C335.591 172.443 333.931 171.137 324.916 170.456C313.043 169.524 309.83 166.523 309.83 160.828C309.83 155.133 314.398 151.445 325.42 151.445C337.137 151.445 341.279 154.405 341.279 160.74C341.279 161.413 341.279 162.046 341.236 162.76C340.499 162.72 339.3 162.679 338.101 162.679C336.903 162.679 335.626 162.72 334.896 162.76C334.931 162.345 334.931 161.835 334.931 161.495C334.931 158.447 333.03 156.888 325.257 156.888C318.412 156.888 316.398 158.202 316.398 160.563C316.398 162.76 317.526 164.155 327.15 164.958C338.371 165.972 342.045 168.544 342.045 174.716C342.045 180.887 337.52 184.562 326.108 184.562C314.696 184.562 309.397 181.52 309.397 175.144C309.397 174.43 309.397 173.75 309.475 172.987C310.327 173.11 311.532 173.158 312.724 173.158C314.008 173.158 315.199 173.158 316.093 173.076V173.92Z" fill="#FCF8F1"/>
<path d="M398.365 152.166C398.209 156.473 398.166 161.331 398.166 168.007C398.166 174.682 398.209 179.288 398.365 183.854H391.364C391.52 180.513 391.563 175.07 391.563 171.395C388.47 171.266 384.789 171.307 381.236 171.307C377.682 171.307 374.079 171.266 370.98 171.395C370.98 175.07 371.022 180.561 371.136 183.854H364.171C364.369 179.288 364.32 174.729 364.32 168.007C364.32 161.284 364.362 156.473 364.171 152.166H371.136C371.022 155.289 370.98 160.95 370.98 164.843C374.072 164.972 377.711 164.972 381.236 164.972C384.761 164.972 388.47 164.972 391.563 164.843C391.563 160.957 391.52 155.296 391.364 152.166H398.365Z" fill="#FCF8F1"/>
<path d="M458.506 173.92C458.506 177.506 461.13 178.948 468.45 178.948C475.77 178.948 478.004 177.601 478.004 175.022C478.004 172.443 476.337 171.137 467.322 170.456C455.449 169.524 452.236 166.523 452.236 160.828C452.236 155.133 456.804 151.445 467.826 151.445C479.543 151.445 483.685 154.405 483.685 160.74C483.685 161.413 483.685 162.046 483.65 162.76C482.912 162.72 481.713 162.679 480.515 162.679C479.316 162.679 478.047 162.72 477.302 162.76C477.344 162.345 477.344 161.835 477.344 161.495C477.344 158.447 475.451 156.888 467.677 156.888C460.833 156.888 458.818 158.202 458.818 160.563C458.818 162.76 459.939 164.155 469.578 164.958C480.791 165.972 484.465 168.544 484.465 174.716C484.465 180.887 479.94 184.562 468.528 184.562C457.116 184.562 451.818 181.52 451.818 175.144C451.818 174.43 451.818 173.75 451.896 172.987C452.747 173.11 453.946 173.158 455.144 173.158C456.421 173.158 457.62 173.158 458.506 173.076V173.92Z" fill="#FCF8F1"/>
<path d="M506.622 183.847C506.743 178.948 506.743 174.723 506.743 168.007C506.743 161.291 506.743 157.024 506.622 152.159H513.502C513.353 156.977 513.388 161.202 513.388 167.966C513.388 174.729 513.353 178.907 513.502 183.847H506.622Z" fill="#FCF8F1"/>
<path d="M570.795 152.166C570.717 155.881 570.682 161.25 570.682 167.966C570.682 174.682 570.682 179.628 570.76 183.854H563.837C561.781 180.772 553.354 171.436 547.241 164.672C545.808 163.026 544.425 161.297 543.297 159.644C543.453 162.141 543.531 164.584 543.609 166.959C543.609 175.525 543.609 181.445 543.723 183.854H537.261C537.304 179.669 537.375 174.77 537.375 168.007C537.375 161.243 537.375 156.221 537.261 152.166H545.233C546.772 154.575 556.099 164.625 561.596 171.007C562.83 172.443 564.029 174.049 564.965 175.702L565.036 175.655C564.845 173.294 564.724 170.926 564.724 168.775C564.724 162.019 564.646 154.963 564.454 152.173H570.802L570.795 152.166Z" fill="#FCF8F1"/>
<path d="M611.216 184.568C599.385 184.568 592.456 178.526 592.456 167.796C592.456 157.065 599.499 151.445 611.067 151.445C622.635 151.445 628.082 155.84 628.082 162.645C628.082 163.108 628.082 163.448 628.047 163.951C627.316 163.91 626.075 163.87 624.876 163.87C623.521 163.87 622.28 163.87 621.507 163.951C621.507 163.659 621.55 163.359 621.55 163.108C621.55 159.181 618.301 157.283 611.024 157.283C603.747 157.283 599.222 160.277 599.222 167.884C599.222 175.491 603.251 178.826 611.372 178.826C618.833 178.826 621.663 176.628 621.777 171.177C617.869 171.177 611.996 171.225 608.662 171.3C608.705 170.837 608.705 169.912 608.705 169.442C608.705 168.469 608.705 167.626 608.662 166.952C612.457 166.993 616.365 166.993 619.188 166.993C621.55 166.993 624.904 167.034 628.047 166.952C628.749 178.227 626.075 184.568 611.216 184.568Z" fill="#FCF8F1"/>
<path d="M650.745 183.847C650.858 178.948 650.858 174.723 650.858 168.007C650.858 161.291 650.858 157.024 650.745 152.159H657.625C657.476 156.977 657.511 161.202 657.511 167.966C657.511 174.729 657.476 178.907 657.625 183.847H650.745Z" fill="#FCF8F1"/>
<path d="M714.91 152.166C714.832 155.881 714.797 161.25 714.797 167.966C714.797 174.682 714.797 179.628 714.875 183.854H707.952C705.903 180.772 697.469 171.436 691.356 164.672C689.923 163.026 688.533 161.297 687.405 159.644C687.568 162.141 687.646 164.584 687.724 166.959C687.724 175.525 687.724 181.445 687.838 183.854H681.376C681.419 179.669 681.49 174.77 681.49 168.007C681.49 161.243 681.49 156.221 681.376 152.166H689.348C690.887 154.575 700.214 164.625 705.711 171.007C706.945 172.443 708.144 174.049 709.08 175.702L709.158 175.655C708.96 173.294 708.846 170.926 708.846 168.775C708.846 162.019 708.768 154.963 708.577 152.173H714.917L714.91 152.166Z" fill="#FCF8F1"/>
<path d="M755.332 184.568C743.495 184.568 736.572 178.526 736.572 167.796C736.572 157.065 743.608 151.445 755.183 151.445C766.759 151.445 772.199 155.84 772.199 162.645C772.199 163.108 772.199 163.448 772.156 163.951C771.426 163.91 770.184 163.87 768.986 163.87C767.631 163.87 766.397 163.87 765.617 163.951C765.617 163.659 765.659 163.359 765.659 163.108C765.659 159.181 762.411 157.283 755.134 157.283C747.857 157.283 743.332 160.277 743.332 167.884C743.332 175.491 747.353 178.826 755.481 178.826C762.95 178.826 765.766 176.628 765.886 171.177C761.985 171.177 756.098 171.225 752.772 171.3C752.814 170.837 752.814 169.912 752.814 169.442C752.814 168.469 752.814 167.626 752.772 166.952C756.566 166.993 760.475 166.993 763.29 166.993C765.659 166.993 769.021 167.034 772.149 166.952C772.844 178.227 770.177 184.568 755.325 184.568" fill="#FCF8F1"/>
<path d="M844.452 152.166C852.807 152.166 857.687 154.956 857.687 163.699C857.687 171.94 852.963 175.485 844.338 175.485C840.317 175.485 837.728 175.485 832.621 175.315C832.657 178.655 832.735 181.561 832.891 183.847H825.77C825.926 179.281 825.926 174.763 825.926 168C825.926 161.236 825.926 156.507 825.77 152.159H844.452V152.166ZM851.14 163.788C851.14 159.351 848.778 157.827 843.246 157.827C841.04 157.827 835.352 157.875 832.529 157.957V169.653C834.38 169.653 838.636 169.742 843.055 169.742C848.934 169.742 851.14 168.136 851.14 163.788Z" fill="#FCF8F1"/>
<path d="M912.839 152.166C912.718 154.697 912.683 157.235 912.683 161.032C912.683 163.4 912.761 166.782 912.761 169.606C912.761 179.533 908.158 184.562 895.937 184.562C883.716 184.562 879.071 179.533 879.071 169.606C879.071 166.775 879.142 163.4 879.142 161.032C879.142 157.228 879.071 154.697 878.993 152.166H885.915C885.766 156.514 885.688 164.972 885.688 169.32C885.688 175.566 888.901 178.274 896.093 178.274C903.285 178.274 906.115 175.525 906.115 169.32C906.115 164.972 906.072 156.473 905.959 152.166H912.846H912.839Z" fill="#FCF8F1"/>
<path d="M960.879 168.007C962.347 168.129 963.588 168.299 964.553 168.68C967.524 169.783 968.851 171.81 968.851 175.403C968.851 181.316 965.177 183.854 957.978 183.854H936.239C936.437 179.458 936.437 174.729 936.437 168.014C936.437 161.298 936.437 156.351 936.239 152.173H957.517C964.9 152.173 968.425 154.575 968.425 160.284C968.425 163.747 967.347 165.605 964.985 166.83C963.978 167.34 962.581 167.632 960.879 167.803V168.014V168.007ZM955.651 157.195C951.828 157.195 947.679 157.235 943.005 157.276C942.963 159.556 942.962 162.434 942.962 165.428C947.566 165.598 951.743 165.51 955.417 165.51C959.942 165.469 961.801 163.985 961.801 161.162C961.801 158.338 960.02 157.195 955.651 157.195ZM962.07 174.008C962.07 171.137 960.254 169.953 955.417 169.953C951.857 169.953 947.452 169.953 942.962 170.034C942.962 172.988 942.962 175.866 943.04 178.275C948.183 178.356 952.247 178.356 955.772 178.356C960.297 178.356 962.077 177.301 962.077 174.008" fill="#FCF8F1"/>
</svg>
