<svg width="82" height="22" viewBox="0 0 82 22" fill="none" xmlns="http://www.w3.org/2000/svg">
<path d="M73.3807 7.29795C72.2316 7.8423 71.1393 8.36624 70.1109 8.57037C68.9406 8.79491 67.7065 8.931 66.444 8.97183C64.4864 9.01946 62.4153 8.84254 60.2734 8.43428C56.1029 7.63816 52.0175 6.09357 48.0669 4.59661C46.5633 4.03185 45.0596 3.46029 43.5489 2.92954C35.9952 0.275842 24.7746 -1.92877 14.1711 2.64376C11.7667 3.68483 9.37653 5.03209 7.05014 6.65833C5.84439 7.50888 4.62439 8.44789 3.43282 9.46174C3.19876 9.65907 2.96471 9.84279 2.73065 10.0265C1.75187 10.7886 0.638318 11.6595 0.333334 13.1157L0 14.7147L1.68806 14.5514C3.51796 14.3677 5.20603 13.7553 6.84443 13.1497C8.05727 12.7006 9.21337 12.2787 10.3837 12.0338C14.0577 11.2853 18.2423 11.9113 23.5335 14.0139C24.9378 14.5718 26.3421 15.1502 27.7465 15.7286C34.9455 18.7089 42.3857 21.7913 50.67 21.8389H50.8827C61.1954 21.8389 72.4586 16.2797 79.5654 7.66539L81.1329 5.76696L78.6079 5.71253C76.7568 5.65129 75.0403 6.49504 73.3665 7.28435" fill="#FCF8F1"/>
</svg>
