<svg width="33" height="32" viewBox="0 0 33 32" fill="none" xmlns="http://www.w3.org/2000/svg">
<path d="M24.6399 15.8337C26.1081 15.9562 27.3493 16.1263 28.3139 16.5074C31.2857 17.6097 32.612 19.6374 32.612 23.2301C32.612 29.1431 28.938 31.6811 21.739 31.6811H0C0.198594 27.2855 0.198615 22.5565 0.198615 15.8406C0.198615 9.12465 0.198594 4.17788 0 0H21.278C28.6614 0 32.1865 2.40194 32.1865 8.1108C32.1865 11.5742 31.1084 13.4318 28.7465 14.6566C27.7394 15.1669 26.3421 15.4595 24.6399 15.6296V15.8406V15.8337ZM19.4126 5.02161C15.5896 5.02161 11.4405 5.06245 6.76642 5.10327C6.72386 7.38274 6.72382 10.261 6.72382 13.2549C11.327 13.425 15.5046 13.3365 19.1786 13.3365C23.7037 13.2957 25.562 11.8124 25.562 8.98856C25.562 6.16475 23.7817 5.02161 19.4126 5.02161ZM25.8315 21.8352C25.8315 18.9638 24.0158 17.7798 19.1786 17.7798C15.6181 17.7798 11.2135 17.7798 6.72382 17.8615C6.72382 20.8146 6.72381 23.6928 6.80183 26.1015C11.944 26.1832 16.0081 26.1832 19.5332 26.1832C24.0583 26.1832 25.8385 25.1285 25.8385 21.8352" fill="#FCF8F1"/>
</svg>
