<svg width="116" height="115" viewBox="0 0 116 115" fill="none" xmlns="http://www.w3.org/2000/svg">
<path d="M113.383 2.09575L115.781 0H84.7572L57.8832 46.7188L31.0162 0H0L2.40441 2.09575C5.25566 4.58614 7.24869 12.6425 7.24869 21.6923V92.7503C7.24869 101.793 5.25566 109.857 2.40441 112.347L0 114.443H37.4138L35.0164 112.347C32.1652 109.857 30.1792 101.793 30.1792 92.7503V36.5667L50.5777 68.8262H65.217L85.6154 36.5667V92.7503C85.6154 101.793 83.6295 109.857 80.7783 112.347L78.3809 114.443H115.795L113.397 112.347C110.539 109.857 108.553 101.793 108.553 92.7503V21.6923C108.553 12.6425 110.539 4.59295 113.397 2.09575" fill="#FCF8F1"/>
</svg>
