<svg width="35" height="32" viewBox="0 0 35 32" fill="none" xmlns="http://www.w3.org/2000/svg">
<path d="M23.6753 18.7188C28.5125 19.3108 30.3636 20.6172 31.8815 25.2238C32.8035 28.1361 33.5057 30.4631 34.0447 31.6879H27.8528C26.6187 31.6879 26.4627 31.2661 25.7251 28.3538C23.8668 22.3523 23.1291 20.9983 17.8309 20.9983H6.57488C6.64581 25.3122 6.76638 29.0682 6.99335 31.6879H0C0.0354633 27.0814 0.106385 22.6449 0.106385 15.8474C0.106385 9.0498 0.0709265 4.57253 0 0H19.6821C27.6897 0 32.0588 2.87825 32.0588 9.42405C32.0588 14.7451 29.47 17.705 23.6611 18.5895V18.712L23.6753 18.7188ZM18.3345 15.7589C23.4412 15.7589 25.6045 13.8605 25.6045 10.5264C25.6045 6.68189 23.4767 5.53875 18.0224 5.53875C15.7741 5.53875 9.63182 5.58638 6.57488 5.70886C6.53233 9.09063 6.53233 12.4656 6.53233 15.6364C8.50409 15.7181 13.2987 15.7589 18.3274 15.7589" fill="#FCF8F1"/>
</svg>
