<svg width="33" height="34" viewBox="0 0 33 34" fill="none" xmlns="http://www.w3.org/2000/svg">
<path d="M6.68837 22.4748C6.68837 26.0607 9.31262 27.5033 16.6322 27.5033C23.9519 27.5033 26.1861 26.156 26.1861 23.5771C26.1861 20.9983 24.5193 19.6918 15.5045 19.0114C3.63143 18.0792 0.418442 15.0785 0.418442 9.38323C0.418442 3.68797 4.98614 0 16.0081 0C27.7252 0 31.8673 2.9599 31.8673 9.29477C31.8673 9.9684 31.8673 10.6012 31.8318 11.3157C31.0942 11.2748 29.8955 11.234 28.6969 11.234C27.4982 11.234 26.2286 11.2748 25.4839 11.3157C25.5265 10.9006 25.5265 10.3903 25.5265 10.0501C25.5265 7.0017 23.6327 5.44349 15.8592 5.44349C9.01476 5.44349 7.00045 6.75674 7.00045 9.11786C7.00045 11.3157 8.12108 12.7106 17.76 13.5135C28.9735 14.5273 32.6475 17.0994 32.6475 23.2709C32.6475 29.4425 28.1224 33.1169 16.7103 33.1169C5.29821 33.1169 0 30.0753 0 23.6996C0 22.9852 -1.03892e-05 22.3047 0.0780088 21.5426C0.929128 21.6651 2.1278 21.7127 3.32646 21.7127C4.60314 21.7127 5.80179 21.7127 6.68837 21.6311V22.4748Z" fill="#FCF8F1"/>
</svg>
