<svg width="36" height="34" viewBox="0 0 36 34" fill="none" xmlns="http://www.w3.org/2000/svg">
<path d="M18.76 33.1236C6.92239 33.1236 0 27.0814 0 16.3509C0 5.62041 7.03591 0 18.6111 0C30.1863 0 35.6264 4.39563 35.6264 11.2C35.6264 11.6627 35.6264 12.0029 35.5839 12.5064C34.8533 12.4656 33.6121 12.4248 32.4134 12.4248C31.0587 12.4248 29.8246 12.4248 29.0444 12.5064C29.0444 12.2138 29.087 11.9144 29.087 11.6627C29.087 7.73656 25.8386 5.83815 18.5615 5.83815C11.2844 5.83815 6.75932 8.83207 6.75932 16.4394C6.75932 24.0466 10.7809 27.3808 18.909 27.3808C26.3776 27.3808 29.1933 25.183 29.3139 19.7327C25.4129 19.7327 19.5261 19.7803 16.1996 19.8551C16.2422 19.3924 16.2422 18.467 16.2422 17.9975C16.2422 17.0245 16.2422 16.1808 16.1996 15.5072C19.9942 15.548 23.9023 15.548 26.7181 15.548C29.087 15.548 32.4489 15.5888 35.5768 15.5072C36.2719 26.782 33.605 33.1236 18.7529 33.1236" fill="#FCF8F1"/>
</svg>
