<svg width="34" height="32" viewBox="0 0 34 32" fill="none" xmlns="http://www.w3.org/2000/svg">
<path d="M33.5341 0C33.4561 3.71518 33.4206 9.08383 33.4206 15.7997C33.4206 22.5156 33.4206 27.4624 33.4986 31.6879H26.5762C24.5264 28.6056 16.0932 19.27 9.97937 12.5064C8.54665 10.8598 7.15649 9.13146 6.02876 7.478C6.19189 9.9752 6.26992 12.418 6.34793 14.7927C6.34793 23.3594 6.34792 29.2792 6.4614 31.6879H0C0.0425559 27.5033 0.113507 22.6041 0.113507 15.8406C0.113507 9.07702 0.113482 4.0554 0 0H7.97214C9.51124 2.40875 18.8381 12.4588 24.3349 18.8413C25.569 20.277 26.7677 21.8828 27.7039 23.5363L27.7819 23.4887C27.5833 21.1276 27.4698 18.7596 27.4698 16.6095C27.4698 9.85272 27.3919 2.7966 27.2004 0.00681101H33.5411L33.5341 0Z" fill="#FCF8F1"/>
</svg>
