<svg width="107" height="118" viewBox="0 0 107 118" fill="none" xmlns="http://www.w3.org/2000/svg">
<path d="M53.1878 0C35.6761 0 22.1504 5.47752 12.9796 16.2897C4.37617 26.435 0 40.7445 0 58.8237C0 76.903 4.36908 91.2125 12.9796 101.358C22.1504 112.163 35.6761 117.648 53.1878 117.648C70.6996 117.648 84.2182 112.17 93.3961 101.358C101.999 91.2125 106.361 76.903 106.361 58.8237C106.361 40.7445 101.999 26.435 93.3961 16.2897C84.2182 5.47752 70.6925 0 53.1878 0ZM82.8493 58.8237C82.8493 86.3202 72.3096 101.467 53.1878 101.467C34.066 101.467 23.5192 86.3202 23.5192 58.8237C23.5192 31.3273 34.0589 16.174 53.1878 16.174C72.3167 16.174 82.8493 31.3205 82.8493 58.8237Z" fill="#FCF8F1"/>
</svg>
