<svg width="36" height="34" viewBox="0 0 36 34" fill="none" xmlns="http://www.w3.org/2000/svg">
<path d="M18.7601 33.1236C6.92953 33.1236 0 27.0814 0 16.3509C0 5.62041 7.043 0 18.6111 0C30.1792 0 35.6264 4.39563 35.6264 11.2C35.6264 11.6627 35.6264 12.0029 35.5909 12.5064C34.8604 12.4656 33.6192 12.4248 32.4205 12.4248C31.0658 12.4248 29.8246 12.4248 29.0515 12.5064C29.0515 12.2138 29.0941 11.9144 29.0941 11.6627C29.0941 7.73656 25.8456 5.83815 18.5686 5.83815C11.2915 5.83815 6.76638 8.83207 6.76638 16.4394C6.76638 24.0466 10.795 27.3808 18.9161 27.3808C26.3776 27.3808 29.2076 25.183 29.3211 19.7327C25.413 19.7327 19.5402 19.7803 16.2067 19.8551C16.2493 19.3924 16.2493 18.467 16.2493 17.9975C16.2493 17.0245 16.2493 16.1808 16.2067 15.5072C20.0013 15.548 23.9093 15.548 26.7322 15.548C29.0941 15.548 32.4489 15.5888 35.5909 15.5072C36.2931 26.782 33.6192 33.1236 18.7601 33.1236Z" fill="#FCF8F1"/>
</svg>
