<svg width="35" height="32" viewBox="0 0 35 32" fill="none" xmlns="http://www.w3.org/2000/svg">
<path d="M34.1937 0C34.0376 4.30716 33.9951 9.16548 33.9951 15.8406C33.9951 22.5156 34.0376 27.1222 34.1937 31.6879H27.1932C27.3493 28.347 27.3918 22.9035 27.3918 19.2291C24.2994 19.0999 20.6183 19.1407 17.0649 19.1407C13.5115 19.1407 9.90842 19.0999 6.80893 19.2291C6.80893 22.9035 6.85151 28.3946 6.96499 31.6879H0C0.198594 27.1222 0.148918 22.5633 0.148918 15.8406C0.148918 9.11785 0.191502 4.30716 0 0H6.96499C6.85151 3.1232 6.80893 8.78444 6.80893 12.6765C9.90133 12.8058 13.5399 12.8058 17.0649 12.8058C20.59 12.8058 24.2994 12.8058 27.3918 12.6765C27.3918 8.79124 27.3493 3.13001 27.1932 0H34.1937Z" fill="#FCF8F1"/>
</svg>
