<svg width="34" height="33" viewBox="0 0 34 33" fill="none" xmlns="http://www.w3.org/2000/svg">
<path d="M33.8461 0C33.7256 2.53122 33.6901 5.06925 33.6901 8.86609C33.6901 11.234 33.7681 14.6158 33.7681 17.4396C33.7681 27.3672 29.1649 32.3956 16.9443 32.3956C4.72363 32.3956 0.0780088 27.3672 0.0780088 17.4396C0.0780088 14.609 0.148918 11.234 0.148918 8.86609C0.148918 5.06245 0.0780192 2.53122 0 0H6.92244C6.77349 4.34799 6.69543 12.8058 6.69543 17.1538C6.69543 23.4002 9.90843 26.1084 17.1004 26.1084C24.2923 26.1084 27.1223 23.3594 27.1223 17.1538C27.1223 12.8058 27.0797 4.30716 26.9662 0H33.8532H33.8461Z" fill="#FCF8F1"/>
</svg>
