<svg width="122" height="115" viewBox="0 0 122 115" fill="none" xmlns="http://www.w3.org/2000/svg">
<path d="M81.6293 1.62624C83.0053 5.16451 81.984 9.90715 78.8348 14.6362L60.8337 44.1059L42.8396 14.6362C39.6834 9.90715 38.6621 5.16451 40.038 1.62624L40.6764 0H0L4.86555 2.28627C9.09277 4.27994 14.164 9.25394 18.7317 15.9154L49.2727 63.7977V92.7435C49.2727 101.793 47.2796 109.85 44.4355 112.34L42.0381 114.436H79.4448L77.0475 112.34C74.1963 109.85 72.2032 101.793 72.2032 92.7435V63.4711L102.333 15.9494C106.936 9.25394 111.993 4.27314 116.227 2.28627L121.1 0H81.0052L81.6364 1.62624H81.6293Z" fill="#FCF8F1"/>
</svg>
